<svg xmlns="http://www.w3.org/2000/svg" xmlns:svgjs="http://svgjs.com/svgjs" width="100%" height="100%" preserveAspectRatio="xMidYMid meet" viewBox="0 0 299.9997863769531 56.2261848449707"><defs id="SvgjsDefs79396"></defs><g id="SvgjsG79397" transform="scale(0.6493506493506493)" opacity="1"><g id="SvgjsG79398" class="fDLns8Rd2" transform="translate(0, 0) scale(0.8658832133646408)" fill="#9200db"><path d="M24 0h76v76c0 13.255-10.745 24-24 24H0V24C0 10.745 10.745 0 24 0z"></path></g><g id="SvgjsG79399" class="wiBTPQmhZS" transform="translate(11.627574579468032, 11.627574579468018) scale(1.9791616305477502)" fill="#ffffff"><path d="M16 2C8.268 2 2 8.268 2 16s6.268 14 14 14 14-6.268 14-14S23.732 2 16 2zm6.89 11.915l-7.477 7.479c-.909.907-2.347.953-3.197.103a1.988 1.988 0 0 1-.305-.402L8.854 18.04c-.908-.908-.954-2.346-.104-3.196.851-.85 2.29-.805 3.197.104l1.863 1.863 5.987-5.988c.909-.908 2.346-.954 3.196-.103.851.849.804 2.288-.103 3.195z" fill-rule="evenodd"></path></g><g id="SvgjsG79400" class="text" transform="translate(289.6796116093768, 44.49778821355711) scale(1)" fill="#9200db"><path d="M-156.32 0C-153.47 0 -151.23 -0.67 -149.58 -2.02C-147.94 -3.37 -147.11 -5.31 -147.11 -7.82L-147.11 -12.49C-147.11 -14.98 -147.75 -16.76 -149.03 -17.83C-150.3 -18.9 -151.98 -19.58 -154.05 -19.87L-160.67 -20.76C-161.06 -20.79 -161.36 -20.94 -161.56 -21.21C-161.77 -21.47 -161.88 -21.8 -161.88 -22.19C-161.88 -22.57 -161.77 -22.89 -161.56 -23.14C-161.36 -23.39 -161.06 -23.52 -160.67 -23.52L-150.32 -23.52C-149.75 -23.52 -149.35 -23.64 -149.09 -23.9C-148.84 -24.15 -148.72 -24.56 -148.72 -25.12L-148.72 -30.41C-148.72 -30.97 -148.84 -31.38 -149.09 -31.63C-149.34 -31.88 -149.75 -32.01 -150.32 -32.01L-162.76 -32.01C-165.64 -32.01 -167.89 -31.34 -169.52 -29.99C-171.15 -28.64 -171.97 -26.71 -171.97 -24.19L-171.97 -19.52C-171.97 -17.03 -171.34 -15.25 -170.08 -14.18C-168.82 -13.12 -167.15 -12.43 -165.08 -12.14L-158.41 -11.2C-158.02 -11.17 -157.73 -11.04 -157.54 -10.8C-157.35 -10.57 -157.25 -10.2 -157.25 -9.69C-157.25 -9.34 -157.35 -9.03 -157.54 -8.78C-157.73 -8.53 -158.02 -8.4 -158.41 -8.4L-170.37 -8.4C-170.93 -8.4 -171.34 -8.28 -171.59 -8.02C-171.84 -7.77 -171.97 -7.37 -171.97 -6.8L-171.97 -1.6C-171.97 -1.04 -171.84 -0.63 -171.59 -0.38C-171.34 -0.13 -170.93 0 -170.37 0Z M-115.02 -8.4L-115.02 -30.41C-115.02 -30.97 -115.14 -31.38 -115.39 -31.63C-115.65 -31.88 -116.05 -32.01 -116.62 -32.01L-123.37 -32.01C-123.94 -32.01 -124.34 -31.88 -124.6 -31.63C-124.85 -31.38 -124.97 -30.97 -124.97 -30.41L-124.97 -10.14C-124.97 -9.54 -125.2 -9.05 -125.64 -8.65C-126.09 -8.25 -127.09 -8.05 -128.66 -8.05C-130.21 -8.05 -131.2 -8.25 -131.64 -8.65C-132.09 -9.05 -132.31 -9.54 -132.31 -10.14L-132.31 -30.41C-132.31 -30.97 -132.44 -31.38 -132.69 -31.63C-132.94 -31.88 -133.35 -32.01 -133.91 -32.01L-140.89 -32.01C-141.45 -32.01 -141.86 -31.88 -142.11 -31.63C-142.37 -31.38 -142.49 -30.97 -142.49 -30.41L-142.49 -8.4C-142.49 -7.04 -142.29 -5.8 -141.89 -4.69C-141.49 -3.58 -140.78 -2.63 -139.76 -1.85C-138.73 -1.06 -137.33 -0.44 -135.56 0C-133.78 0.44 -131.51 0.67 -128.75 0.67C-126 0.67 -123.73 0.44 -121.95 0C-120.17 -0.44 -118.77 -1.06 -117.75 -1.85C-116.73 -2.63 -116.02 -3.58 -115.62 -4.69C-115.22 -5.8 -115.02 -7.04 -115.02 -8.4Z M-87.81 0C-87.24 0 -86.84 -0.13 -86.58 -0.38C-86.33 -0.63 -86.21 -1.04 -86.21 -1.6L-86.21 -6.89C-86.21 -7.45 -86.33 -7.86 -86.58 -8.11C-86.84 -8.37 -87.24 -8.49 -87.81 -8.49L-96.74 -8.49C-97.66 -8.49 -98.34 -8.66 -98.79 -9C-99.23 -9.34 -99.45 -9.88 -99.45 -10.63L-99.45 -21.21C-99.45 -21.95 -99.23 -22.5 -98.79 -22.87C-98.34 -23.24 -97.66 -23.43 -96.74 -23.43L-87.81 -23.43C-87.24 -23.43 -86.84 -23.56 -86.58 -23.81C-86.33 -24.06 -86.21 -24.47 -86.21 -25.03L-86.21 -30.41C-86.21 -30.97 -86.33 -31.38 -86.58 -31.63C-86.84 -31.88 -87.24 -32.01 -87.81 -32.01L-98.65 -32.01C-102.36 -32.01 -105.11 -31.26 -106.9 -29.77C-108.69 -28.27 -109.59 -25.98 -109.59 -22.9L-109.59 -9.07C-109.59 -5.99 -108.69 -3.7 -106.9 -2.22C-105.11 -0.74 -102.36 0 -98.65 0Z M-68.33 0.67C-65.78 0.67 -63.68 0.45 -62.02 0.02C-60.36 -0.41 -59.05 -1.02 -58.09 -1.8C-57.12 -2.59 -56.46 -3.53 -56.09 -4.62C-55.71 -5.72 -55.53 -6.95 -55.53 -8.31L-55.53 -12.58C-55.53 -15.22 -56.27 -17.21 -57.75 -18.56C-59.23 -19.91 -61.98 -20.58 -65.98 -20.58C-67.16 -20.58 -68.22 -20.53 -69.16 -20.41C-70.09 -20.29 -70.91 -20.13 -71.62 -19.92L-71.62 -20.9C-71.62 -21.99 -71.43 -22.71 -71.05 -23.05C-70.66 -23.39 -69.92 -23.56 -68.82 -23.56L-60.51 -23.56C-59.95 -23.56 -59.54 -23.69 -59.29 -23.94C-59.03 -24.19 -58.91 -24.6 -58.91 -25.16L-58.91 -30.41C-58.91 -30.97 -59.03 -31.38 -59.29 -31.63C-59.54 -31.88 -59.95 -32.01 -60.51 -32.01L-70.73 -32.01C-74.91 -32.01 -77.78 -31.17 -79.34 -29.48C-80.89 -27.79 -81.67 -25.59 -81.67 -22.9L-81.67 -8.31C-81.67 -6.95 -81.49 -5.72 -81.12 -4.62C-80.74 -3.53 -80.07 -2.59 -79.09 -1.8C-78.11 -1.02 -76.76 -0.41 -75.02 0.02C-73.29 0.45 -71.06 0.67 -68.33 0.67ZM-71.62 -11.65C-71.62 -12.09 -71.45 -12.47 -71.09 -12.78C-70.73 -13.09 -69.92 -13.25 -68.64 -13.25C-67.31 -13.25 -66.47 -13.09 -66.11 -12.78C-65.75 -12.47 -65.58 -12.09 -65.58 -11.65L-65.58 -9.03C-65.58 -8.55 -65.75 -8.16 -66.11 -7.85C-66.47 -7.54 -67.31 -7.38 -68.64 -7.38C-69.92 -7.38 -70.73 -7.54 -71.09 -7.85C-71.45 -8.16 -71.62 -8.55 -71.62 -9.03Z M-31.43 0C-30.87 0 -30.4 -0.1 -30.03 -0.31C-29.66 -0.52 -29.37 -0.9 -29.17 -1.47L-24.81 -12.36C-24.54 -13.01 -24.32 -13.58 -24.14 -14.07C-23.96 -14.56 -23.82 -15.03 -23.7 -15.47C-23.58 -15.92 -23.5 -16.38 -23.45 -16.87C-23.41 -17.36 -23.39 -17.96 -23.39 -18.67L-23.39 -30.41C-23.39 -30.97 -23.51 -31.38 -23.76 -31.63C-24.02 -31.88 -24.42 -32.01 -24.99 -32.01L-31.97 -32.01C-32.53 -32.01 -32.94 -31.88 -33.19 -31.63C-33.44 -31.38 -33.57 -30.97 -33.57 -30.41L-33.57 -18.18C-33.57 -17.89 -33.6 -17.59 -33.66 -17.29C-33.71 -17 -33.8 -16.69 -33.92 -16.36L-36.01 -10.09C-36.1 -9.8 -36.2 -9.6 -36.32 -9.49C-36.44 -9.39 -36.62 -9.34 -36.86 -9.34L-37.35 -9.34C-37.58 -9.34 -37.76 -9.39 -37.88 -9.49C-38 -9.6 -38.1 -9.8 -38.19 -10.09L-40.28 -16.32C-40.4 -16.64 -40.49 -16.95 -40.55 -17.25C-40.61 -17.55 -40.64 -17.84 -40.64 -18.14L-40.64 -30.41C-40.64 -30.97 -40.78 -31.38 -41.08 -31.63C-41.38 -31.88 -41.81 -32.01 -42.37 -32.01L-49.44 -32.01C-50 -32.01 -50.41 -31.88 -50.66 -31.63C-50.91 -31.38 -51.04 -30.97 -51.04 -30.41L-51.04 -18.67C-51.04 -17.96 -51.02 -17.36 -50.97 -16.87C-50.93 -16.38 -50.85 -15.92 -50.73 -15.47C-50.61 -15.03 -50.46 -14.56 -50.28 -14.07C-50.11 -13.58 -49.88 -13.01 -49.62 -12.36L-45.26 -1.47C-45.05 -0.9 -44.76 -0.52 -44.39 -0.31C-44.02 -0.1 -43.55 0 -42.99 0Z M4.31 0C4.88 0 5.28 -0.13 5.54 -0.38C5.79 -0.63 5.91 -1.04 5.91 -1.6L5.91 -6.8C5.91 -7.37 5.79 -7.77 5.54 -8.02C5.28 -8.28 4.88 -8.4 4.31 -8.4L-7.96 -8.4L-7.96 -12.23L0.71 -12.23C1.27 -12.23 1.68 -12.35 1.93 -12.6C2.19 -12.86 2.31 -13.26 2.31 -13.83L2.31 -18.58C2.31 -19.15 2.19 -19.55 1.93 -19.81C1.68 -20.06 1.27 -20.18 0.71 -20.18L-7.96 -20.18L-7.96 -23.61L4.31 -23.61C4.88 -23.61 5.28 -23.73 5.54 -23.99C5.79 -24.24 5.91 -24.65 5.91 -25.21L5.91 -30.41C5.91 -30.97 5.79 -31.38 5.54 -31.63C5.28 -31.88 4.88 -32.01 4.31 -32.01L-16.32 -32.01C-16.88 -32.01 -17.29 -31.88 -17.54 -31.63C-17.79 -31.38 -17.92 -30.97 -17.92 -30.41L-17.92 -1.6C-17.92 -1.04 -17.79 -0.63 -17.54 -0.38C-17.29 -0.13 -16.88 0 -16.32 0Z M21.21 -24.01L24.54 -24.01C25.31 -24.01 25.83 -23.81 26.1 -23.41C26.36 -23.01 26.5 -22.51 26.5 -21.92L26.5 -20.41C26.5 -19.81 26.36 -19.32 26.1 -18.92C25.83 -18.52 25.31 -18.32 24.54 -18.32L21.21 -18.32ZM19.61 0C20.17 0 20.58 -0.13 20.83 -0.38C21.08 -0.63 21.21 -1.04 21.21 -1.6L21.21 -10.31L27.43 -10.31C28.05 -10.31 28.49 -10.16 28.74 -9.85C28.99 -9.54 29.12 -9.05 29.12 -8.4L29.12 -1.6C29.12 -1.04 29.25 -0.63 29.5 -0.38C29.75 -0.13 30.16 0 30.72 0L37.61 0C38.18 0 38.58 -0.13 38.83 -0.38C39.09 -0.63 39.21 -1.04 39.21 -1.6L39.21 -11.03C39.21 -12.89 38.72 -14.39 37.72 -15.52C36.73 -16.64 35.43 -17.29 33.83 -17.47C34.75 -17.86 35.4 -18.49 35.77 -19.36C36.14 -20.24 36.32 -21.3 36.32 -22.54L36.32 -24.59C36.32 -26.78 35.69 -28.56 34.43 -29.94C33.17 -31.32 30.88 -32.01 27.56 -32.01L12.76 -32.01C12.2 -32.01 11.79 -31.88 11.54 -31.63C11.29 -31.38 11.16 -30.97 11.16 -30.41L11.16 -1.6C11.16 -1.04 11.29 -0.63 11.54 -0.38C11.79 -0.13 12.2 0 12.76 0Z M52.68 0C53.25 0 53.65 -0.13 53.91 -0.38C54.16 -0.63 54.28 -1.04 54.28 -1.6L54.28 -11.47L61.71 -11.47L61.71 -1.6C61.71 -1.04 61.84 -0.63 62.09 -0.38C62.34 -0.13 62.75 0 63.31 0L70.2 0C70.76 0 71.17 -0.13 71.42 -0.38C71.68 -0.63 71.8 -1.04 71.8 -1.6L71.8 -30.41C71.8 -30.97 71.68 -31.38 71.42 -31.63C71.17 -31.88 70.76 -32.01 70.2 -32.01L63.31 -32.01C62.75 -32.01 62.34 -31.88 62.09 -31.63C61.84 -31.38 61.71 -30.97 61.71 -30.41L61.71 -20.76L54.28 -20.76L54.28 -30.41C54.28 -30.97 54.16 -31.38 53.91 -31.63C53.65 -31.88 53.25 -32.01 52.68 -32.01L45.79 -32.01C45.23 -32.01 44.82 -31.88 44.57 -31.63C44.32 -31.38 44.19 -30.97 44.19 -30.41L44.19 -1.6C44.19 -1.04 44.32 -0.63 44.57 -0.38C44.82 -0.13 45.23 0 45.79 0Z M105.19 -8.4L105.19 -30.41C105.19 -30.97 105.06 -31.38 104.81 -31.63C104.56 -31.88 104.15 -32.01 103.59 -32.01L96.83 -32.01C96.27 -32.01 95.86 -31.88 95.61 -31.63C95.36 -31.38 95.23 -30.97 95.23 -30.41L95.23 -10.14C95.23 -9.54 95.01 -9.05 94.56 -8.65C94.12 -8.25 93.11 -8.05 91.54 -8.05C90 -8.05 89.01 -8.25 88.56 -8.65C88.12 -9.05 87.9 -9.54 87.9 -10.14L87.9 -30.41C87.9 -30.97 87.77 -31.38 87.52 -31.63C87.27 -31.88 86.86 -32.01 86.29 -32.01L79.31 -32.01C78.75 -32.01 78.34 -31.88 78.09 -31.63C77.84 -31.38 77.71 -30.97 77.71 -30.41L77.71 -8.4C77.71 -7.04 77.91 -5.8 78.31 -4.69C78.71 -3.58 79.43 -2.63 80.45 -1.85C81.47 -1.06 82.87 -0.44 84.65 0C86.43 0.44 88.7 0.67 91.45 0.67C94.21 0.67 96.48 0.44 98.25 0C100.03 -0.44 101.43 -1.06 102.46 -1.85C103.48 -2.63 104.19 -3.58 104.59 -4.69C104.99 -5.8 105.19 -7.04 105.19 -8.4Z M138.36 -8.4L138.36 -30.41C138.36 -30.97 138.23 -31.38 137.98 -31.63C137.73 -31.88 137.32 -32.01 136.76 -32.01L130 -32.01C129.43 -32.01 129.03 -31.88 128.78 -31.63C128.52 -31.38 128.4 -30.97 128.4 -30.41L128.4 -10.14C128.4 -9.54 128.18 -9.05 127.73 -8.65C127.29 -8.25 126.28 -8.05 124.71 -8.05C123.17 -8.05 122.17 -8.25 121.73 -8.65C121.28 -9.05 121.06 -9.54 121.06 -10.14L121.06 -30.41C121.06 -30.97 120.94 -31.38 120.68 -31.63C120.43 -31.88 120.02 -32.01 119.46 -32.01L112.48 -32.01C111.92 -32.01 111.51 -31.88 111.26 -31.63C111.01 -31.38 110.88 -30.97 110.88 -30.41L110.88 -8.4C110.88 -7.04 111.08 -5.8 111.48 -4.69C111.88 -3.58 112.59 -2.63 113.61 -1.85C114.64 -1.06 116.04 -0.44 117.82 0C119.59 0.44 121.86 0.67 124.62 0.67C127.37 0.67 129.64 0.44 131.42 0C133.2 -0.44 134.6 -1.06 135.62 -1.85C136.64 -2.63 137.36 -3.58 137.76 -4.69C138.16 -5.8 138.36 -7.04 138.36 -8.4Z M154.32 -24.01L157.65 -24.01C158.42 -24.01 158.94 -23.81 159.21 -23.41C159.47 -23.01 159.61 -22.51 159.61 -21.92L159.61 -20.41C159.61 -19.81 159.47 -19.32 159.21 -18.92C158.94 -18.52 158.42 -18.32 157.65 -18.32L154.32 -18.32ZM152.72 0C153.28 0 153.69 -0.13 153.94 -0.38C154.19 -0.63 154.32 -1.04 154.32 -1.6L154.32 -10.31L160.54 -10.31C161.16 -10.31 161.6 -10.16 161.85 -9.85C162.1 -9.54 162.23 -9.05 162.23 -8.4L162.23 -1.6C162.23 -1.04 162.36 -0.63 162.61 -0.38C162.86 -0.13 163.27 0 163.83 0L170.72 0C171.29 0 171.69 -0.13 171.95 -0.38C172.2 -0.63 172.32 -1.04 172.32 -1.6L172.32 -11.03C172.32 -12.89 171.83 -14.39 170.83 -15.52C169.84 -16.64 168.54 -17.29 166.94 -17.47C167.86 -17.86 168.51 -18.49 168.88 -19.36C169.25 -20.24 169.43 -21.3 169.43 -22.54L169.43 -24.59C169.43 -26.78 168.8 -28.56 167.54 -29.94C166.28 -31.32 163.99 -32.01 160.67 -32.01L145.87 -32.01C145.31 -32.01 144.9 -31.88 144.65 -31.63C144.4 -31.38 144.27 -30.97 144.27 -30.41L144.27 -1.6C144.27 -1.04 144.4 -0.63 144.65 -0.38C144.9 -0.13 145.31 0 145.87 0Z"></path></g><g id="SvgjsG79401" class="text" transform="translate(288.8496116093768, 82.24185572962783) scale(1)" fill="#050505"><path d="M-164.64 0C-164.21 0 -163.9 -0.1 -163.71 -0.29C-163.52 -0.48 -163.42 -0.79 -163.42 -1.22L-163.42 -8.77L-157.74 -8.77L-157.74 -1.22C-157.74 -0.79 -157.65 -0.48 -157.45 -0.29C-157.26 -0.1 -156.95 0 -156.52 0L-151.25 0C-150.82 0 -150.51 -0.1 -150.31 -0.29C-150.12 -0.48 -150.03 -0.79 -150.03 -1.22L-150.03 -23.26C-150.03 -23.69 -150.12 -24 -150.31 -24.19C-150.51 -24.38 -150.82 -24.48 -151.25 -24.48L-156.52 -24.48C-156.95 -24.48 -157.26 -24.38 -157.45 -24.19C-157.65 -24 -157.74 -23.69 -157.74 -23.26L-157.74 -15.88L-163.42 -15.88L-163.42 -23.26C-163.42 -23.69 -163.52 -24 -163.71 -24.19C-163.9 -24.38 -164.21 -24.48 -164.64 -24.48L-169.92 -24.48C-170.35 -24.48 -170.66 -24.38 -170.85 -24.19C-171.04 -24 -171.14 -23.69 -171.14 -23.26L-171.14 -1.22C-171.14 -0.79 -171.04 -0.48 -170.85 -0.29C-170.66 -0.1 -170.35 0 -169.92 0Z M-124.49 -6.43L-124.49 -23.26C-124.49 -23.69 -124.59 -24 -124.78 -24.19C-124.97 -24.38 -125.28 -24.48 -125.72 -24.48L-130.88 -24.48C-131.31 -24.48 -131.63 -24.38 -131.82 -24.19C-132.01 -24 -132.11 -23.69 -132.11 -23.26L-132.11 -7.75C-132.11 -7.3 -132.28 -6.92 -132.62 -6.61C-132.96 -6.31 -133.73 -6.15 -134.93 -6.15C-136.11 -6.15 -136.87 -6.31 -137.21 -6.61C-137.55 -6.92 -137.72 -7.3 -137.72 -7.75L-137.72 -23.26C-137.72 -23.69 -137.81 -24 -138.01 -24.19C-138.2 -24.38 -138.51 -24.48 -138.94 -24.48L-144.28 -24.48C-144.71 -24.48 -145.02 -24.38 -145.21 -24.19C-145.41 -24 -145.5 -23.69 -145.5 -23.26L-145.5 -6.43C-145.5 -5.38 -145.35 -4.44 -145.04 -3.59C-144.74 -2.74 -144.19 -2.01 -143.41 -1.41C-142.63 -0.81 -141.56 -0.34 -140.2 0C-138.84 0.34 -137.11 0.51 -135 0.51C-132.89 0.51 -131.15 0.34 -129.8 0C-128.43 -0.34 -127.36 -0.81 -126.58 -1.41C-125.8 -2.01 -125.26 -2.74 -124.95 -3.59C-124.64 -4.44 -124.49 -5.38 -124.49 -6.43Z M-112.29 -18.36L-109.74 -18.36C-109.15 -18.36 -108.75 -18.21 -108.55 -17.9C-108.34 -17.6 -108.24 -17.22 -108.24 -16.76L-108.24 -15.61C-108.24 -15.15 -108.34 -14.77 -108.55 -14.47C-108.75 -14.16 -109.15 -14.01 -109.74 -14.01L-112.29 -14.01ZM-113.51 0C-113.08 0 -112.77 -0.1 -112.57 -0.29C-112.38 -0.48 -112.29 -0.79 -112.29 -1.22L-112.29 -7.89L-107.52 -7.89C-107.05 -7.89 -106.71 -7.77 -106.52 -7.53C-106.33 -7.29 -106.23 -6.92 -106.23 -6.43L-106.23 -1.22C-106.23 -0.79 -106.14 -0.48 -105.94 -0.29C-105.75 -0.1 -105.44 0 -105.01 0L-99.74 0C-99.31 0 -99 -0.1 -98.8 -0.29C-98.61 -0.48 -98.52 -0.79 -98.52 -1.22L-98.52 -8.43C-98.52 -9.86 -98.89 -11 -99.65 -11.87C-100.41 -12.73 -101.41 -13.23 -102.63 -13.36C-101.93 -13.66 -101.43 -14.14 -101.15 -14.81C-100.87 -15.48 -100.72 -16.29 -100.72 -17.24L-100.72 -18.8C-100.72 -20.48 -101.21 -21.85 -102.17 -22.9C-103.13 -23.95 -104.88 -24.48 -107.42 -24.48L-118.74 -24.48C-119.18 -24.48 -119.49 -24.38 -119.68 -24.19C-119.87 -24 -119.97 -23.69 -119.97 -23.26L-119.97 -1.22C-119.97 -0.79 -119.87 -0.48 -119.68 -0.29C-119.49 -0.1 -119.18 0 -118.74 0Z M-77.71 0C-77.28 0 -76.96 -0.1 -76.77 -0.29C-76.58 -0.48 -76.48 -0.79 -76.48 -1.22L-76.48 -5.2C-76.48 -5.63 -76.58 -5.94 -76.77 -6.14C-76.96 -6.33 -77.28 -6.43 -77.71 -6.43L-87.09 -6.43L-87.09 -9.35L-80.46 -9.35C-80.03 -9.35 -79.72 -9.45 -79.53 -9.64C-79.33 -9.83 -79.24 -10.14 -79.24 -10.57L-79.24 -14.21C-79.24 -14.64 -79.33 -14.95 -79.53 -15.15C-79.72 -15.34 -80.03 -15.44 -80.46 -15.44L-87.09 -15.44L-87.09 -18.05L-77.71 -18.05C-77.28 -18.05 -76.96 -18.15 -76.77 -18.34C-76.58 -18.54 -76.48 -18.85 -76.48 -19.28L-76.48 -23.26C-76.48 -23.69 -76.58 -24 -76.77 -24.19C-76.96 -24.38 -77.28 -24.48 -77.71 -24.48L-93.48 -24.48C-93.91 -24.48 -94.23 -24.38 -94.42 -24.19C-94.61 -24 -94.71 -23.69 -94.71 -23.26L-94.71 -1.22C-94.71 -0.79 -94.61 -0.48 -94.42 -0.29C-94.23 -0.1 -93.91 0 -93.48 0Z M-66.15 0C-65.72 0 -65.4 -0.1 -65.21 -0.29C-65.02 -0.48 -64.92 -0.79 -64.92 -1.22L-64.92 -12.44L-59.11 -5.41L-59.11 -1.22C-59.11 -0.79 -59.01 -0.48 -58.82 -0.29C-58.63 -0.1 -58.32 0 -57.89 0L-52.78 0C-52.35 0 -52.04 -0.1 -51.85 -0.29C-51.66 -0.48 -51.56 -0.79 -51.56 -1.22L-51.56 -23.26C-51.56 -23.69 -51.66 -24 -51.85 -24.19C-52.04 -24.38 -52.35 -24.48 -52.78 -24.48L-57.89 -24.48C-58.32 -24.48 -58.63 -24.38 -58.82 -24.19C-59.01 -24 -59.11 -23.69 -59.11 -23.26L-59.11 -16.01L-65.71 -23.56C-66 -23.9 -66.3 -24.14 -66.61 -24.28C-66.91 -24.41 -67.28 -24.48 -67.71 -24.48L-71.25 -24.48C-71.68 -24.48 -71.99 -24.38 -72.18 -24.19C-72.37 -24 -72.47 -23.69 -72.47 -23.26L-72.47 -1.22C-72.47 -0.79 -72.37 -0.48 -72.18 -0.29C-71.99 -0.1 -71.68 0 -71.25 0Z M-32.93 0C-32.5 0 -32.19 -0.1 -31.99 -0.29C-31.8 -0.48 -31.7 -0.79 -31.7 -1.22L-31.7 -13.19L-29.7 -9.49C-29.49 -9.1 -29.25 -8.82 -28.97 -8.65C-28.68 -8.48 -28.33 -8.4 -27.9 -8.4L-26.54 -8.4C-26.11 -8.4 -25.75 -8.48 -25.47 -8.65C-25.18 -8.82 -24.94 -9.1 -24.73 -9.49L-22.73 -13.19L-22.73 -1.22C-22.73 -0.79 -22.63 -0.48 -22.44 -0.29C-22.25 -0.1 -21.94 0 -21.51 0L-16.27 0C-15.84 0 -15.53 -0.1 -15.33 -0.29C-15.14 -0.48 -15.04 -0.79 -15.04 -1.22L-15.04 -23.26C-15.04 -23.69 -15.14 -24 -15.33 -24.19C-15.53 -24.38 -15.84 -24.48 -16.27 -24.48L-21.78 -24.48C-22.14 -24.48 -22.44 -24.4 -22.68 -24.24C-22.92 -24.08 -23.14 -23.82 -23.34 -23.46L-26.37 -17.92C-26.48 -17.71 -26.58 -17.57 -26.66 -17.48C-26.74 -17.39 -26.84 -17.34 -26.98 -17.34L-27.28 -17.34C-27.42 -17.34 -27.53 -17.39 -27.61 -17.48C-27.69 -17.57 -27.78 -17.71 -27.9 -17.92L-30.96 -23.46C-31.16 -23.82 -31.38 -24.08 -31.62 -24.24C-31.86 -24.4 -32.16 -24.48 -32.52 -24.48L-38 -24.48C-38.43 -24.48 -38.74 -24.38 -38.93 -24.19C-39.12 -24 -39.22 -23.69 -39.22 -23.26L-39.22 -1.22C-39.22 -0.79 -39.12 -0.48 -38.93 -0.29C-38.74 -0.1 -38.43 0 -38 0Z M6.65 0C7.08 0 7.39 -0.1 7.58 -0.29C7.77 -0.48 7.87 -0.79 7.87 -1.22L7.87 -5.2C7.87 -5.63 7.77 -5.94 7.58 -6.14C7.39 -6.33 7.08 -6.43 6.65 -6.43L-2.74 -6.43L-2.74 -9.35L3.89 -9.35C4.32 -9.35 4.64 -9.45 4.83 -9.64C5.02 -9.83 5.12 -10.14 5.12 -10.57L5.12 -14.21C5.12 -14.64 5.02 -14.95 4.83 -15.15C4.64 -15.34 4.32 -15.44 3.89 -15.44L-2.74 -15.44L-2.74 -18.05L6.65 -18.05C7.08 -18.05 7.39 -18.15 7.58 -18.34C7.77 -18.54 7.87 -18.85 7.87 -19.28L7.87 -23.26C7.87 -23.69 7.77 -24 7.58 -24.19C7.39 -24.38 7.08 -24.48 6.65 -24.48L-9.13 -24.48C-9.56 -24.48 -9.87 -24.38 -10.06 -24.19C-10.26 -24 -10.35 -23.69 -10.35 -23.26L-10.35 -1.22C-10.35 -0.79 -10.26 -0.48 -10.06 -0.29C-9.87 -0.1 -9.56 0 -9.13 0Z M23.44 0C23.87 0 24.19 -0.1 24.38 -0.29C24.57 -0.48 24.67 -0.79 24.67 -1.22L24.67 -17.92L29.67 -17.92C30.1 -17.92 30.41 -18.01 30.6 -18.21C30.79 -18.4 30.89 -18.71 30.89 -19.14L30.89 -23.26C30.89 -23.69 30.79 -24 30.6 -24.19C30.41 -24.38 30.1 -24.48 29.67 -24.48L11.71 -24.48C11.28 -24.48 10.97 -24.38 10.78 -24.19C10.59 -24 10.49 -23.69 10.49 -23.26L10.49 -19.14C10.49 -18.71 10.59 -18.4 10.78 -18.21C10.97 -18.01 11.28 -17.92 11.71 -17.92L16.71 -17.92L16.71 -1.22C16.71 -0.79 16.81 -0.48 17 -0.29C17.19 -0.1 17.5 0 17.94 0Z M52.85 0C55.03 0 56.75 -0.52 58 -1.55C59.26 -2.58 59.89 -4.06 59.89 -5.98L59.89 -9.55C59.89 -11.46 59.4 -12.82 58.43 -13.63C57.45 -14.45 56.17 -14.97 54.59 -15.2L49.52 -15.88C49.23 -15.9 49 -16.01 48.84 -16.22C48.68 -16.42 48.6 -16.67 48.6 -16.97C48.6 -17.26 48.68 -17.5 48.84 -17.7C49 -17.89 49.23 -17.99 49.52 -17.99L57.44 -17.99C57.87 -17.99 58.19 -18.08 58.38 -18.28C58.57 -18.47 58.67 -18.78 58.67 -19.21L58.67 -23.26C58.67 -23.69 58.57 -24 58.38 -24.19C58.19 -24.38 57.87 -24.48 57.44 -24.48L47.92 -24.48C45.72 -24.48 44 -23.96 42.76 -22.93C41.51 -21.9 40.89 -20.42 40.89 -18.5L40.89 -14.93C40.89 -13.02 41.37 -11.66 42.33 -10.85C43.29 -10.03 44.57 -9.51 46.16 -9.28L51.26 -8.57C51.55 -8.55 51.77 -8.44 51.92 -8.26C52.07 -8.08 52.14 -7.8 52.14 -7.41C52.14 -7.14 52.07 -6.91 51.92 -6.72C51.77 -6.52 51.55 -6.43 51.26 -6.43L42.11 -6.43C41.68 -6.43 41.37 -6.33 41.17 -6.14C40.98 -5.94 40.89 -5.63 40.89 -5.2L40.89 -1.22C40.89 -0.79 40.98 -0.48 41.17 -0.29C41.37 -0.1 41.68 0 42.11 0Z M84.44 -6.43L84.44 -23.26C84.44 -23.69 84.34 -24 84.15 -24.19C83.96 -24.38 83.65 -24.48 83.22 -24.48L78.05 -24.48C77.62 -24.48 77.3 -24.38 77.11 -24.19C76.92 -24 76.82 -23.69 76.82 -23.26L76.82 -7.75C76.82 -7.3 76.65 -6.92 76.31 -6.61C75.97 -6.31 75.2 -6.15 74 -6.15C72.82 -6.15 72.06 -6.31 71.72 -6.61C71.38 -6.92 71.21 -7.3 71.21 -7.75L71.21 -23.26C71.21 -23.69 71.12 -24 70.92 -24.19C70.73 -24.38 70.42 -24.48 69.99 -24.48L64.65 -24.48C64.22 -24.48 63.91 -24.38 63.72 -24.19C63.52 -24 63.43 -23.69 63.43 -23.26L63.43 -6.43C63.43 -5.38 63.58 -4.44 63.89 -3.59C64.19 -2.74 64.74 -2.01 65.52 -1.41C66.3 -0.81 67.37 -0.34 68.73 0C70.09 0.34 71.83 0.51 73.93 0.51C76.04 0.51 77.78 0.34 79.14 0C80.5 -0.34 81.57 -0.81 82.35 -1.41C83.13 -2.01 83.67 -2.74 83.98 -3.59C84.29 -4.44 84.44 -5.38 84.44 -6.43Z M105.25 0C105.68 0 105.99 -0.1 106.18 -0.29C106.37 -0.48 106.47 -0.79 106.47 -1.22L106.47 -5.27C106.47 -5.7 106.37 -6.01 106.18 -6.2C105.99 -6.4 105.68 -6.49 105.25 -6.49L98.41 -6.49C97.71 -6.49 97.19 -6.62 96.85 -6.89C96.51 -7.15 96.34 -7.56 96.34 -8.13L96.34 -16.22C96.34 -16.78 96.51 -17.21 96.85 -17.49C97.19 -17.78 97.71 -17.92 98.41 -17.92L105.25 -17.92C105.68 -17.92 105.99 -18.01 106.18 -18.21C106.37 -18.4 106.47 -18.71 106.47 -19.14L106.47 -23.26C106.47 -23.69 106.37 -24 106.18 -24.19C105.99 -24.38 105.68 -24.48 105.25 -24.48L96.95 -24.48C94.12 -24.48 92.02 -23.91 90.64 -22.76C89.27 -21.62 88.59 -19.87 88.59 -17.51L88.59 -6.94C88.59 -4.58 89.27 -2.83 90.64 -1.7C92.02 -0.57 94.12 0 96.95 0Z M126.43 0C126.86 0 127.17 -0.1 127.36 -0.29C127.56 -0.48 127.65 -0.79 127.65 -1.22L127.65 -5.27C127.65 -5.7 127.56 -6.01 127.36 -6.2C127.17 -6.4 126.86 -6.49 126.43 -6.49L119.6 -6.49C118.89 -6.49 118.37 -6.62 118.03 -6.89C117.69 -7.15 117.52 -7.56 117.52 -8.13L117.52 -16.22C117.52 -16.78 117.69 -17.21 118.03 -17.49C118.37 -17.78 118.89 -17.92 119.6 -17.92L126.43 -17.92C126.86 -17.92 127.17 -18.01 127.36 -18.21C127.56 -18.4 127.65 -18.71 127.65 -19.14L127.65 -23.26C127.65 -23.69 127.56 -24 127.36 -24.19C127.17 -24.38 126.86 -24.48 126.43 -24.48L118.13 -24.48C115.3 -24.48 113.2 -23.91 111.83 -22.76C110.45 -21.62 109.77 -19.87 109.77 -17.51L109.77 -6.94C109.77 -4.58 110.45 -2.83 111.83 -1.7C113.2 -0.57 115.3 0 118.13 0Z M148.5 0C148.93 0 149.24 -0.1 149.43 -0.29C149.62 -0.48 149.72 -0.79 149.72 -1.22L149.72 -5.2C149.72 -5.63 149.62 -5.94 149.43 -6.14C149.24 -6.33 148.93 -6.43 148.5 -6.43L139.11 -6.43L139.11 -9.35L145.74 -9.35C146.17 -9.35 146.48 -9.45 146.68 -9.64C146.87 -9.83 146.97 -10.14 146.97 -10.57L146.97 -14.21C146.97 -14.64 146.87 -14.95 146.68 -15.15C146.48 -15.34 146.17 -15.44 145.74 -15.44L139.11 -15.44L139.11 -18.05L148.5 -18.05C148.93 -18.05 149.24 -18.15 149.43 -18.34C149.62 -18.54 149.72 -18.85 149.72 -19.28L149.72 -23.26C149.72 -23.69 149.62 -24 149.43 -24.19C149.24 -24.38 148.93 -24.48 148.5 -24.48L132.72 -24.48C132.29 -24.48 131.98 -24.38 131.78 -24.19C131.59 -24 131.5 -23.69 131.5 -23.26L131.5 -1.22C131.5 -0.79 131.59 -0.48 131.78 -0.29C131.98 -0.1 132.29 0 132.72 0Z M165.09 0C167.26 0 168.98 -0.52 170.24 -1.55C171.5 -2.58 172.13 -4.06 172.13 -5.98L172.13 -9.55C172.13 -11.46 171.64 -12.82 170.66 -13.63C169.69 -14.45 168.41 -14.97 166.82 -15.2L161.76 -15.88C161.46 -15.9 161.23 -16.01 161.07 -16.22C160.92 -16.42 160.84 -16.67 160.84 -16.97C160.84 -17.26 160.92 -17.5 161.07 -17.7C161.23 -17.89 161.46 -17.99 161.76 -17.99L169.68 -17.99C170.11 -17.99 170.42 -18.08 170.61 -18.28C170.8 -18.47 170.9 -18.78 170.9 -19.21L170.9 -23.26C170.9 -23.69 170.8 -24 170.61 -24.19C170.42 -24.38 170.11 -24.48 169.68 -24.48L160.16 -24.48C157.96 -24.48 156.24 -23.96 154.99 -22.93C153.74 -21.9 153.12 -20.42 153.12 -18.5L153.12 -14.93C153.12 -13.02 153.6 -11.66 154.56 -10.85C155.53 -10.03 156.8 -9.51 158.39 -9.28L163.49 -8.57C163.78 -8.55 164 -8.44 164.15 -8.26C164.3 -8.08 164.37 -7.8 164.37 -7.41C164.37 -7.14 164.3 -6.91 164.15 -6.72C164 -6.52 163.78 -6.43 163.49 -6.43L154.34 -6.43C153.91 -6.43 153.6 -6.33 153.41 -6.14C153.22 -5.94 153.12 -5.63 153.12 -5.2L153.12 -1.22C153.12 -0.79 153.22 -0.48 153.41 -0.29C153.6 -0.1 153.91 0 154.34 0Z"></path></g></g></svg>