<?xml version="1.0" encoding="UTF-8"?>
<svg id="Layer_2" data-name="Layer 2" xmlns="http://www.w3.org/2000/svg" viewBox="0 0 850.16 441.18">
  <defs>
    <style>
      .cls-1 {
        fill: #459fd8;
      }

      .cls-1, .cls-2, .cls-3, .cls-4 {
        stroke-width: 0px;
      }

      .cls-2 {
        fill: #43b178;
      }

      .cls-3 {
        fill: #e3767d;
      }

      .cls-4 {
        fill: #fff;
      }
    </style>
  </defs>
  <g id="Laag_1" data-name="Laag 1">
    <g>
      <g>
        <circle class="cls-3" cx="494.98" cy="27.81" r="27.81"/>
        <circle class="cls-1" cx="494.98" cy="139.07" r="27.81"/>
        <circle class="cls-2" cx="550.61" cy="83.44" r="27.81"/>
      </g>
      <g>
        <path class="cls-4" d="m122.2,40.43h-29.55c-2.2,0-4,1.8-4,4v42.77c-2.65-2.01-5.58-3.75-8.78-5.21-6.68-3-13.99-4.51-21.96-4.51-11.21,0-21.2,2.69-29.98,8.04-8.78,5.37-15.61,12.68-20.49,21.96C2.57,116.74.14,127.31.14,139.18s2.43,22.44,7.31,31.69c4.88,9.26,11.67,16.58,20.36,21.94,8.71,5.37,18.74,8.04,30.11,8.04,7.97,0,15.28-1.66,21.96-4.99,3.5-1.75,6.66-3.85,9.5-6.22v4.78c0,2.2,1.8,4,4,4h28.83c2.2,0,4-1.8,4-4V44.43c0-2.2-1.8-4-4-4Zm-59.1,126.49c-17.13,1.36-31.34-12.81-30-29.96,1.06-13.49,11.99-24.42,25.48-25.48,17.15-1.34,31.32,12.87,29.96,29.99-1.07,13.47-11.98,24.38-25.45,25.45Z"/>
        <path class="cls-4" d="m189.9,90.65s-.08.09-.12.14v-6.87c0-2.21-1.79-4-4-4h-29.55c-2.21,0-4,1.79-4,4v110.36c0,2.21,1.79,4,4,4h29.55c2.21,0,4-1.79,4-4v-59.01c0-7.64,1.83-13.37,5.49-17.19,3.66-3.82,8.66-5.73,15-5.73,3.09,0,5.85.49,8.29,1.46.26.1.51.21.76.32,2.41,1.08,5.13-.73,5.13-3.37v-27.88c0-2-1.63-3.67-3.63-3.69-.18,0-.37,0-.55,0-12.84,0-22.96,3.82-30.36,11.46Z"/>
        <path class="cls-4" d="m414.59,105.66c-5.2-8.94-12.27-15.93-21.21-20.97-8.94-5.04-19.35-7.56-31.21-7.56s-22.84,2.68-32.43,8.05c-9.59,5.36-17.15,12.72-22.67,22.07-5.53,9.35-8.29,19.87-8.29,31.57s2.84,22.76,8.53,32.18c5.69,9.43,13.49,16.79,23.41,22.07,9.91,5.28,21.29,7.92,34.13,7.92,10.08,0,19.26-1.67,27.55-5,7.06-2.84,13.24-7,18.53-12.5,1.53-1.59,1.54-4.11-.03-5.66l-15.16-14.98c-1.52-1.5-3.95-1.54-5.52-.09-2.93,2.73-6.19,4.86-9.78,6.41-4.72,2.03-9.92,3.05-15.6,3.05-6.34,0-11.82-1.34-16.46-4.02-4.63-2.68-8.21-6.54-10.73-11.58-.78-1.56-1.43-3.22-1.97-4.96l81.64-.39c1.88,0,3.49-1.33,3.9-3.17.38-1.7.64-3.29.8-4.77.24-2.35.36-4.67.36-6.95,0-11.54-2.6-21.78-7.8-30.72Zm-67.17,4.15c4.3-2.76,9.39-4.15,15.24-4.15,5.37,0,9.96,1.22,13.78,3.66,3.82,2.44,6.7,5.89,8.65,10.36.77,1.76,1.35,3.73,1.84,5.83l-51.26.29c.49-1.59,1.06-3.11,1.75-4.54,2.35-4.88,5.69-8.69,10-11.46Z"/>
        <rect class="cls-4" x="242.8" y="79.99" width="37.55" height="118.29" rx="4" ry="4"/>
        <path class="cls-4" d="m122.06,224.59h-29.55c-2.2,0-4,1.8-4,4v42.77c-2.65-2.01-5.58-3.75-8.78-5.21-6.68-3-13.99-4.51-21.96-4.51-11.21,0-21.2,2.69-29.98,8.04-8.78,5.37-15.61,12.68-20.49,21.96-4.88,9.26-7.31,19.82-7.31,31.69s2.43,22.44,7.31,31.69c4.88,9.26,11.67,16.58,20.36,21.94,8.71,5.37,18.74,8.04,30.11,8.04,7.97,0,15.28-1.66,21.96-4.99,3.5-1.75,6.66-3.85,9.5-6.22v4.78c0,2.2,1.8,4,4,4h28.83c2.2,0,4-1.8,4-4v-149.99c0-2.2-1.8-4-4-4Zm-59.1,126.49c-17.13,1.36-31.34-12.81-30-29.96,1.06-13.49,11.99-24.42,25.48-25.48,17.15-1.34,31.32,12.87,29.96,29.99-1.07,13.47-11.98,24.38-25.45,25.45Z"/>
        <path class="cls-4" d="m504.71,375.82c-3.31,2.34-7.1,4.33-11.39,6-5.37,2.12-10.54,3.19-15.51,3.19-14.27,0-24.89-3.32-31.86-9.96-6.98-6.65-10.46-16.16-10.46-28.55v-47.41c0-1.96-1.62-3.55-3.64-3.55h-11.49c-2,0-3.64-1.6-3.64-3.55v-24.13c0-1.97,1.64-3.56,3.64-3.56h11.49c2.02,0,3.64-1.6,3.64-3.57v-22.93c0-2.02,1.66-3.68,3.69-3.68h30.18c2.02,0,3.68,1.66,3.68,3.68l-.04,22.93c0,1.97,1.64,3.57,3.65,3.57h16.45c2.03,0,3.65,1.59,3.65,3.56v24.13c0,1.95-1.62,3.55-3.65,3.55h-16.45c-2.01,0-3.65,1.59-3.65,3.55v38.28c0,4.7.87,8.14,2.65,10.33,1.75,2.21,4.48,3.28,8.18,3.28,1.43,0,3.11-.35,5.04-1.04.73-.27,1.43-.57,2.11-.9,1.83-.84,4.02-.11,4.88,1.68l10.03,20.67c.78,1.56.28,3.42-1.18,4.43Z"/>
        <path class="cls-4" d="m637.4,264.3h-28.83c-2.2,0-4,1.8-4,4v5.5c-3.2-3.07-6.9-5.59-11.1-7.6-6.4-3.09-13.6-4.64-21.57-4.64-10.9,0-20.6,2.63-29.14,7.91-8.54,5.28-15.28,12.61-20.23,21.96-4.97,9.35-7.45,19.95-7.45,31.8s2.48,22.4,7.45,31.58c4.95,9.18,11.72,16.49,20.36,21.94,8.61,5.45,18.28,8.17,29.01,8.17,8.13,0,15.4-1.55,21.83-4.64,4.1-1.97,7.73-4.44,10.84-7.4v5.68c-.02,2.21,1.77,4.01,3.99,4.01,9.61-.03,19.23.02,28.85,0,2.21,0,3.99-1.8,3.99-4,0-36.74,0-73.57,0-110.3,0-2.2-1.8-4-4-4Zm-61.69,86.76c-15.35,0-27.81-12.44-27.81-27.81s12.46-27.81,27.81-27.81c6.68,0,12.81,2.36,17.61,6.28,6.23,5.1,10.2,12.85,10.2,21.53,0,15.37-12.44,27.81-27.81,27.81Z"/>
        <rect class="cls-4" x="360.74" y="264.3" width="37.55" height="118.29" rx="4" ry="4"/>
        <rect class="cls-4" x="152.38" y="264.3" width="37.55" height="118.29" rx="4" ry="4"/>
        <path class="cls-4" d="m330.42,264.3h-28.81c-2.21,0-4,1.79-4,4v3.57c-.15-.13-.28-.24-.42-.35-2.6-2.12-5.5-3.94-8.72-5.45-6.42-3-13.69-4.51-21.81-4.51-.07,0-.15.02-.22.02-.09,0-.18-.02-.28-.02-11.21,0-21.22,2.69-29.98,8.04-8.78,5.37-15.61,12.68-20.48,21.96-4.88,9.26-7.33,19.82-7.33,31.69s2.45,22.44,7.33,31.69c4.88,9.26,11.65,16.58,20.36,21.94,8.69,5.37,18.74,8.04,30.11,8.04,7.97,0,15.28-1.66,21.94-4.99,3.22-1.6,6.13-3.48,8.78-5.61v7.36c0,8.45-2.63,14.95-7.91,19.49-5.28,4.55-12.57,6.83-21.83,6.83-7.16,0-13.36-1.31-18.64-3.9-4.27-2.1-8.19-4.99-11.78-8.69-1.42-1.45-3.77-1.51-5.23-.07l-18.15,17.96c-1.34,1.33-1.45,3.46-.28,4.93,5.47,6.85,12.55,12.26,21.28,16.23,9.83,4.45,21.17,6.7,34.01,6.7s24.02-2.48,34.01-7.44c9.99-4.97,17.83-12,23.54-21.09,5.69-9.11,8.52-19.75,8.52-31.93v-112.42c0-2.21-1.79-4-4-4Zm-61.37,86.79c-15.35,0-27.81-12.44-27.81-27.81s12.46-27.81,27.81-27.81,27.81,12.46,27.81,27.81-12.44,27.81-27.81,27.81Z"/>
        <path class="cls-4" d="m782.14,264.3h-28.83c-2.2,0-4,1.8-4,4v5.5c-3.2-3.07-6.9-5.59-11.1-7.6-6.4-3.09-13.6-4.64-21.57-4.64-10.9,0-20.6,2.63-29.14,7.91-8.54,5.28-15.28,12.61-20.23,21.96-4.97,9.35-7.45,19.95-7.45,31.8s2.48,22.4,7.45,31.58c4.95,9.18,11.72,16.49,20.36,21.94,8.61,5.45,18.28,8.17,29.01,8.17,8.13,0,15.4-1.55,21.83-4.64,4.1-1.97,7.73-4.44,10.84-7.4v5.68c-.02,2.21,1.77,4.01,3.99,4.01,9.61-.03,19.23.02,28.85,0,2.21,0,4-1.8,4-4,0-36.74,0-73.57,0-110.3,0-2.2-1.8-4-4-4Zm-61.69,86.76c-15.35,0-27.81-12.44-27.81-27.81s12.46-27.81,27.81-27.81c6.68,0,12.81,2.36,17.61,6.28,6.23,5.1,10.2,12.85,10.2,21.53,0,15.37-12.44,27.81-27.81,27.81Z"/>
        <rect class="cls-4" x="812.61" y="225.12" width="37.55" height="157.75" rx="4" ry="4"/>
      </g>
    </g>
  </g>
</svg>