<svg width="210" height="47" viewBox="0 0 210 47" fill="none" xmlns="http://www.w3.org/2000/svg">
<g clip-path="url(#clip0_412_102)">
<path d="M37.4668 0.115076C38.4064 0.519252 38.7588 1.67404 38.1128 2.4824C33.1212 8.94923 9.10274 26.733 2.52556 20.9013C0.294016 18.9382 1.35106 14.2035 5.05073 9.06471C5.40308 8.71827 5.81415 8.25635 6.1665 7.96766C2.05576 12.7023 0.294016 19.3423 7.04737 18.8804C16.3846 18.1876 32.4752 5.08068 35.4702 0.692471C35.8813 0.057336 36.7034 -0.173622 37.4081 0.115076H37.4668Z" fill="url(#paint0_linear_412_102)"/>
<path d="M43.8687 3.92633C43.164 3.34894 42.1069 3.46442 41.5197 4.15729C38.9358 7.27523 30.9492 14.6082 22.258 19.6892C9.63211 27.0799 -2.11286 28.7543 0.999561 17.1487C0.823386 17.6683 0.647212 18.419 0.529762 18.9964C0.353587 19.8625 0.177413 20.9595 0.0599633 21.8256C0.00123844 22.8072 -0.174936 24.8281 0.882111 26.4448C3.52473 30.602 12.0398 28.4079 19.0281 25.0013C30.7143 19.2851 41.1086 9.98899 44.1623 6.23592C44.7496 5.54304 44.6321 4.50373 43.9274 3.92633H43.8687Z" fill="url(#paint1_linear_412_102)"/>
<path d="M3.93375 38.5701C3.52268 37.8195 2.93543 36.8957 2.58308 36.1451L2.11328 35.1635C9.33644 48.79 43.6317 24.8859 50.62 16.3404C51.266 15.5321 52.5579 15.8208 52.8515 16.8023C52.9103 17.091 52.8515 17.3797 52.7341 17.6684C49.2693 24.6549 12.8599 50.9841 3.87503 38.5124L3.93375 38.5701Z" fill="url(#paint2_linear_412_102)"/>
<path d="M1.46812 32.6809C1.29195 32.3922 0.939597 31.8726 0.587248 30.5446C0.411074 29.7362 0.234899 28.6391 0.11745 27.8308L0 26.676C1.58557 39.0323 21.6107 29.4475 35.646 19.1699C36.4094 18.5925 37.5252 18.7657 38.1124 19.5163C38.6997 20.3247 38.5235 21.4217 37.7601 21.9991C25.0755 31.0065 6.34228 40.1871 1.46812 32.6809Z" fill="url(#paint3_linear_412_102)"/>
<path d="M6.98828 42.5536C14.6225 49.5978 31.1829 40.3595 42.3994 31.8718C43.2215 31.2366 44.396 31.6985 44.6309 32.6801C44.7483 33.1998 44.5722 33.7772 44.1024 34.1236C33.297 42.2071 16.7953 50.8103 9.8658 45.2673C9.21982 44.7477 8.39768 43.9971 7.81043 43.4197L6.98828 42.5536Z" fill="url(#paint4_linear_412_102)"/>
<path d="M70.4116 25.3473H67.0056V22.9799H72.9368V33.4885C72.9368 36.9529 71.175 38.6851 67.6515 38.6851H66.3009C62.7774 38.6851 61.0156 36.9529 61.0156 33.4885V13.6839C61.0156 10.2195 62.7774 8.4873 66.3009 8.4873H67.6515C71.1163 8.4873 72.878 10.2195 72.878 13.6261V18.0143H70.3529V13.6261C70.3529 11.8362 69.4133 10.9124 67.5341 10.9124H66.4183C64.5391 10.9124 63.5995 11.8362 63.5995 13.6261V33.6618C63.5995 35.4517 64.5391 36.3755 66.4183 36.3755H67.6515C69.472 36.3755 70.4116 35.4517 70.4116 33.6618V25.405V25.3473Z" fill="#1B5979"/>
<path d="M86.6176 28.0034H78.3961V33.8351C78.3961 35.5095 79.277 36.3756 81.0387 36.3756H81.5673C83.329 36.3756 84.2099 35.5095 84.2099 33.8351V31.179H86.6176V33.7196C86.6176 37.0107 84.9146 38.6852 81.5673 38.6852H80.98C77.6327 38.6852 75.9297 37.0107 75.9297 33.7196V20.324C75.9297 17.0328 77.6327 15.3584 80.98 15.3584H81.5673C84.9146 15.3584 86.6176 17.0328 86.6176 20.324V27.9456V28.0034ZM78.3961 20.2663V25.636H84.0924V20.2663C84.0924 18.5341 83.2116 17.668 81.5085 17.668H81.0387C79.277 17.668 78.3961 18.5341 78.3961 20.2663Z" fill="#1B5979"/>
<path d="M95.3101 38.6852H94.4292C91.0819 38.6852 89.3789 37.0107 89.3789 33.7196V20.324C89.3789 17.0328 91.0819 15.3584 94.4292 15.3584H95.3101C98.6574 15.3584 100.302 17.0328 100.302 20.324V33.7196C100.302 37.0107 98.6574 38.6852 95.3101 38.6852ZM95.3101 17.668H94.488C92.7849 17.668 91.9041 18.5341 91.9041 20.2663V33.7773C91.9041 35.4518 92.7849 36.3179 94.488 36.3179H95.3101C97.0131 36.3179 97.894 35.4518 97.894 33.7773V20.2663C97.894 18.5341 97.0131 17.668 95.3101 17.668Z" fill="#1B5979"/>
<path d="M111.988 23.7307C112.987 24.4813 113.691 25.2319 114.103 25.9825C114.514 26.7331 114.69 27.7724 114.69 29.0427V33.5464C114.69 36.953 112.928 38.6852 109.405 38.6852H108.465C104.941 38.6852 103.18 37.0108 103.18 33.6041V27.4837H105.705V33.6619C105.705 35.3941 106.644 36.3179 108.524 36.3179H109.287C111.166 36.3179 112.106 35.4518 112.106 33.6619V29.1005C112.106 28.2921 111.988 27.7147 111.695 27.2528C111.46 26.7909 110.99 26.329 110.344 25.867L105.881 22.5759C104.883 21.8253 104.178 21.0747 103.767 20.2663C103.356 19.4579 103.18 18.4764 103.18 17.2638V13.5685C103.18 10.1619 104.941 8.42969 108.465 8.42969H109.287C112.811 8.42969 114.572 10.1041 114.572 13.5108V18.7073H112.047V13.3953C112.047 11.6631 111.108 10.7393 109.228 10.7393H108.582C106.703 10.7393 105.764 11.6054 105.764 13.3953V17.1484C105.764 17.899 105.881 18.5341 106.175 18.996C106.41 19.4579 106.879 19.9199 107.525 20.4395L111.988 23.6729V23.7307Z" fill="#1B5979"/>
<path d="M123.439 38.6852H122.558C119.211 38.6852 117.508 37.0107 117.508 33.7196V20.324C117.508 17.0328 119.211 15.3584 122.558 15.3584H123.439C126.786 15.3584 128.431 17.0328 128.431 20.324V33.7196C128.431 37.0107 126.786 38.6852 123.439 38.6852ZM123.439 17.668H122.617C120.914 17.668 120.033 18.5341 120.033 20.2663V33.7773C120.033 35.4518 120.914 36.3179 122.617 36.3179H123.439C125.142 36.3179 126.023 35.4518 126.023 33.7773V20.2663C126.023 18.5341 125.142 17.668 123.439 17.668Z" fill="#1B5979"/>
<path d="M131.957 15.6474V12.5294C131.957 9.7002 133.366 8.31445 136.126 8.31445H137.477V10.624H136.243C135.069 10.624 134.482 11.2592 134.482 12.4717V15.7051H137.359V17.957H134.482V38.5122H131.957V17.8992H130.43V15.6474H131.957Z" fill="#1B5979"/>
<path d="M142.349 17.8996V38.4548H139.824V17.8996H138.121V15.6477H139.824V11.8369H142.349V15.6477H145.051V17.8996H142.349Z" fill="#1B5979"/>
<path d="M157.616 38.4546L154.915 20.5553L152.155 38.4546H149.629L145.871 15.6475H148.338L150.863 34.0664L153.682 15.6475H156.089L158.908 34.0086L161.433 15.6475H163.782L160.141 38.4546H157.616Z" fill="#1B5979"/>
<path d="M165.43 34.8166V30.6016C165.43 29.2736 165.665 28.2921 166.193 27.6569C166.722 26.964 167.603 26.4444 168.894 25.9247L173.475 24.2503V20.0353C173.475 18.4186 172.653 17.6102 170.95 17.6102H170.656C168.953 17.6102 168.131 18.4186 168.131 20.0353V22.98H165.723V20.1508C165.723 16.9751 167.368 15.3584 170.715 15.3584H171.067C174.356 15.3584 176 16.9751 176 20.1508V38.3965H173.534V36.8953C172.066 38.1078 170.656 38.6852 169.364 38.6852H169.306C166.78 38.6852 165.547 37.4149 165.547 34.8166H165.43ZM170.01 36.3179C170.95 36.3179 172.124 35.8559 173.475 34.9898V26.5599L169.951 27.8879C169.188 28.1766 168.66 28.523 168.425 28.9272C168.131 29.3314 168.014 29.9088 168.014 30.6594V34.3547C168.014 35.6827 168.66 36.3756 170.069 36.3756L170.01 36.3179Z" fill="#1B5979"/>
<path d="M178.992 38.455V15.6478H181.459V17.9574C182.457 16.3407 183.808 15.4746 185.452 15.4746V18.2461C183.808 18.3616 182.516 18.939 181.459 19.9206V38.5127H178.992V38.455Z" fill="#1B5979"/>
<path d="M197.61 28.0034H189.388V33.8351C189.388 35.5095 190.269 36.3756 192.031 36.3756H192.559C194.321 36.3756 195.202 35.5095 195.202 33.8351V31.179H197.61V33.7196C197.61 37.0107 195.907 38.6852 192.559 38.6852H191.972C188.625 38.6852 186.922 37.0107 186.922 33.7196V20.324C186.922 17.0328 188.625 15.3584 191.972 15.3584H192.559C195.907 15.3584 197.61 17.0328 197.61 20.324V27.9456V28.0034ZM189.388 20.2663V25.636H195.085V20.2663C195.085 18.5341 194.204 17.668 192.501 17.668H192.031C190.269 17.668 189.388 18.5341 189.388 20.2663Z" fill="#1B5979"/>
<path d="M203.13 18.1879H202.19V11.4901H200.898V10.624H204.481V11.4901H203.189V18.1879H203.13ZM207.123 18.1879L205.89 12.2985V18.1879H205.068V10.6818H206.301L207.476 16.7444L208.709 10.6818H209.883V18.1879H209.061V12.2985L207.828 18.1879H207.006H207.123Z" fill="#1B5979"/>
</g>
<defs>
<linearGradient id="paint0_linear_412_102" x1="1.35106" y1="11.0279" x2="38.4064" y2="11.0279" gradientUnits="userSpaceOnUse">
<stop stop-color="#137093"/>
<stop offset="0.1" stop-color="#0A89AF"/>
<stop offset="0.2" stop-color="#01A6CF"/>
<stop offset="0.3" stop-color="#00AAD3"/>
<stop offset="0.4" stop-color="#0DAECC"/>
<stop offset="0.6" stop-color="#3FBFB7"/>
<stop offset="0.8" stop-color="#74CFC3"/>
<stop offset="1" stop-color="#E6F2DE"/>
</linearGradient>
<linearGradient id="paint1_linear_412_102" x1="0.00123845" y1="16.1671" x2="44.5734" y2="16.1671" gradientUnits="userSpaceOnUse">
<stop stop-color="#137093"/>
<stop offset="0.1" stop-color="#0A89AF"/>
<stop offset="0.2" stop-color="#01A6CF"/>
<stop offset="0.3" stop-color="#00AAD3"/>
<stop offset="0.4" stop-color="#0DAECC"/>
<stop offset="0.6" stop-color="#3FBFB7"/>
<stop offset="0.8" stop-color="#74CFC3"/>
<stop offset="1" stop-color="#E6F2DE"/>
</linearGradient>
<linearGradient id="paint2_linear_412_102" x1="2.11328" y1="28.9276" x2="52.9103" y2="28.9276" gradientUnits="userSpaceOnUse">
<stop stop-color="#137093"/>
<stop offset="0.1" stop-color="#0A89AF"/>
<stop offset="0.2" stop-color="#01A6CF"/>
<stop offset="0.3" stop-color="#00AAD3"/>
<stop offset="0.4" stop-color="#0DAECC"/>
<stop offset="0.6" stop-color="#3FBFB7"/>
<stop offset="0.8" stop-color="#74CFC3"/>
<stop offset="1" stop-color="#E6F2DE"/>
</linearGradient>
<linearGradient id="paint3_linear_412_102" x1="0" y1="27.1379" x2="38.5235" y2="27.1379" gradientUnits="userSpaceOnUse">
<stop stop-color="#137093"/>
<stop offset="0.1" stop-color="#0A89AF"/>
<stop offset="0.2" stop-color="#01A6CF"/>
<stop offset="0.3" stop-color="#00AAD3"/>
<stop offset="0.4" stop-color="#0DAECC"/>
<stop offset="0.6" stop-color="#3FBFB7"/>
<stop offset="0.8" stop-color="#74CFC3"/>
<stop offset="1" stop-color="#E6F2DE"/>
</linearGradient>
<linearGradient id="paint4_linear_412_102" x1="6.92956" y1="39.2624" x2="44.6896" y2="39.2624" gradientUnits="userSpaceOnUse">
<stop stop-color="#137093"/>
<stop offset="0.1" stop-color="#0A89AF"/>
<stop offset="0.2" stop-color="#01A6CF"/>
<stop offset="0.3" stop-color="#00AAD3"/>
<stop offset="0.4" stop-color="#0DAECC"/>
<stop offset="0.6" stop-color="#3FBFB7"/>
<stop offset="0.8" stop-color="#74CFC3"/>
<stop offset="1" stop-color="#E6F2DE"/>
</linearGradient>
<clipPath id="clip0_412_102">
<rect width="210" height="47" fill="white"/>
</clipPath>
</defs>
</svg>
