<?xml version="1.0" encoding="UTF-8"?>
<svg width="293px" height="100px" viewBox="0 0 293 100" version="1.1" xmlns="http://www.w3.org/2000/svg" xmlns:xlink="http://www.w3.org/1999/xlink">
    <title>Group 10</title>
    <g id="Page-1" stroke="none" stroke-width="1" fill="none" fill-rule="evenodd">
        <g id="Group-3" transform="translate(0.000000, -132.713255)" fill-rule="nonzero">
            <g id="Group-2" transform="translate(0.000000, 132.713255)">
                <g id="Group-10" transform="translate(0.000000, -0.000000)">
                    <path d="M14.7880974,63.1199279 C24.6167719,63.1199279 29.1253381,57.1686204 29.1253381,47.5202885 L29.1253381,15.6898106 C29.1253381,5.95130748 24.6167719,5.68434189e-14 14.7880974,5.68434189e-14 L7.38964445e-13,5.68434189e-14 L7.38964445e-13,63.1199279 L14.7880974,63.1199279 Z M14.6979261,56.7177638 L7.03336339,56.7177638 L7.03336339,6.40216411 L14.6077547,6.40216411 C19.7475203,6.40216411 22.1821461,9.5581605 22.1821461,15.3291253 L22.1821461,47.7908025 C22.1821461,53.5617674 19.7475203,56.7177638 14.6979261,56.7177638 Z M65.3201082,63.1199279 L65.3201082,56.7177638 L46.3841298,56.7177638 L46.3841298,34.2651037 L61.8034265,34.2651037 L61.8034265,27.9531109 L46.3841298,27.9531109 L46.3841298,6.40216411 L65.3201082,6.40216411 L65.3201082,5.68434189e-14 L39.3507665,5.68434189e-14 L39.3507665,63.1199279 L65.3201082,63.1199279 Z M101.424707,63.1199279 L101.424707,56.7177638 L82.4887286,56.7177638 L82.4887286,34.2651037 L97.9080252,34.2651037 L97.9080252,27.9531109 L82.4887286,27.9531109 L82.4887286,6.40216411 L101.424707,6.40216411 L101.424707,5.68434189e-14 L75.4553652,5.68434189e-14 L75.4553652,63.1199279 L101.424707,63.1199279 Z M118.593327,63.1199279 L118.593327,38.232642 L124.815149,38.232642 C134.824166,38.232642 139.513075,33.0027051 139.513075,22.993688 L139.513075,15.4192967 C139.513075,5.86113616 135.275023,5.68434189e-14 125.356177,5.68434189e-14 L111.559964,5.68434189e-14 L111.559964,63.1199279 L118.593327,63.1199279 Z M124.815149,31.9206492 L118.593327,31.9206492 L118.593327,6.40216411 L125.356177,6.40216411 C130.495942,6.40216411 132.569883,9.28764653 132.569883,15.0586114 L132.569883,23.4445446 C132.569883,29.4860234 130.045086,31.9206492 124.815149,31.9206492 Z" id="DEEP" fill="#343B49"></path>
                    <path d="M169.251578,63.1199279 C179.080252,63.1199279 183.67899,57.7998197 183.67899,48.3318305 L183.67899,43.0117223 C183.67899,36.0685302 181.334536,31.1992786 175.202885,29.4860234 C180.703336,27.7727683 182.596934,23.6248873 182.596934,16.9522092 L182.596934,13.9765555 C182.596934,4.68890893 178.719567,-7.10542736e-15 168.890893,-7.10542736e-15 L154.733995,-7.10542736e-15 L154.733995,63.1199279 L169.251578,63.1199279 Z M167.177638,26.7808837 L161.767358,26.7808837 L161.767358,6.40216411 L168.71055,6.40216411 C173.760144,6.40216411 175.653742,9.10730388 175.653742,14.6979261 L175.653742,18.3949504 C175.653742,24.9774572 172.76826,26.7808837 167.177638,26.7808837 Z M169.251578,56.7177638 L161.767358,56.7177638 L161.767358,33.1830478 L167.899008,33.1830478 C173.940487,33.1830478 176.735798,35.5275023 176.735798,42.5608656 L176.735798,48.1514878 C176.735798,54.012624 174.391344,56.7177638 169.251578,56.7177638 Z M218.791704,63.1199279 L218.791704,56.7177638 L200.757439,56.7177638 L200.757439,-7.10542736e-15 L193.724076,-7.10542736e-15 L193.724076,63.1199279 L218.791704,63.1199279 Z M241.550947,63.8412985 C251.28945,63.8412985 255.707845,57.4391344 255.707845,47.8809739 L255.707845,-7.10542736e-15 L249.125338,-7.10542736e-15 L249.125338,48.2416592 C249.125338,53.9224527 246.871055,57.348963 241.821461,57.348963 C236.681695,57.348963 234.427412,53.9224527 234.427412,48.2416592 L234.427412,-7.10542736e-15 L227.48422,-7.10542736e-15 L227.48422,47.8809739 C227.48422,57.4391344 231.902615,63.8412985 241.550947,63.8412985 Z M292.2633,63.1199279 L292.2633,56.7177638 L273.327322,56.7177638 L273.327322,34.2651037 L288.746619,34.2651037 L288.746619,27.9531109 L273.327322,27.9531109 L273.327322,6.40216411 L292.2633,6.40216411 L292.2633,-7.10542736e-15 L266.293959,-7.10542736e-15 L266.293959,63.1199279 L292.2633,63.1199279 Z" id="BLUE" fill="#343B49"></path>
                    <path d="M71.1487827,99.8358882 C73.7042381,99.8358882 74.8764653,98.2885482 74.8764653,95.779982 L74.8764653,87.5040577 C74.8764653,84.9720469 73.7042381,83.4247069 71.1487827,83.4247069 L67.3038774,83.4247069 L67.3038774,99.8358882 L71.1487827,99.8358882 Z M71.1253381,98.1713255 L69.1325518,98.1713255 L69.1325518,85.0892696 L71.1018936,85.0892696 C72.4382326,85.0892696 73.0712353,85.9098287 73.0712353,87.4102795 L73.0712353,95.8503156 C73.0712353,97.3507665 72.4382326,98.1713255 71.1253381,98.1713255 Z M96.4508566,99.8358882 L96.4508566,83.4247069 L94.6221821,83.4247069 L94.6221821,99.8358882 L96.4508566,99.8358882 Z M119.900812,100 C122.432822,100 123.60505,98.3588819 123.60505,95.8737601 L123.60505,91.0441839 L120.182146,91.0441839 L120.182146,92.6853021 L121.870153,92.6853021 L121.870153,95.9675383 C121.870153,97.4445446 121.28404,98.3354373 119.947701,98.3354373 C118.634806,98.3354373 118.025248,97.4445446 118.025248,95.9675383 L118.025248,87.2930568 C118.025248,85.8160505 118.634806,84.9251578 119.947701,84.9251578 C121.28404,84.9251578 121.870153,85.8160505 121.870153,87.2930568 L121.870153,88.7935077 L123.60505,88.7935077 L123.60505,87.386835 C123.60505,84.9017133 122.432822,83.2605951 119.900812,83.2605951 C117.392245,83.2605951 116.220018,84.9017133 116.220018,87.386835 L116.220018,95.8737601 C116.220018,98.3588819 117.392245,100 119.900812,100 Z M145.202885,99.8358882 L145.202885,83.4247069 L143.374211,83.4247069 L143.374211,99.8358882 L145.202885,99.8358882 Z M169.285843,99.8358882 L169.285843,85.0892696 L172.310189,85.0892696 L172.310189,83.4247069 L164.456267,83.4247069 L164.456267,85.0892696 L167.480613,85.0892696 L167.480613,99.8358882 L169.285843,99.8358882 Z M191.915239,99.8358882 L192.548242,96.5302074 L196.697926,96.5302074 L197.330929,99.8358882 L199.159603,99.8358882 L196.018034,83.4247069 L193.368801,83.4247069 L190.227232,99.8358882 L191.915239,99.8358882 Z M196.440036,94.9594229 L192.782687,94.9594229 L194.587917,85.4878269 L196.440036,94.9594229 Z M225.141569,99.8358882 L225.141569,98.1713255 L220.45266,98.1713255 L220.45266,83.4247069 L218.623986,83.4247069 L218.623986,99.8358882 L225.141569,99.8358882 Z" id="digital" fill="#343B49"></path>
                    <path d="M46.1676247,90.8884475 C46.6656271,90.8883956 47.0694319,91.2920643 47.0694319,91.7900668 C47.0694319,92.2749639 46.6867813,92.6705067 46.206927,92.6910369 L46.1678127,92.691874 L5.41037353,92.6961226 C4.91237105,92.6961745 4.50856628,92.2925058 4.50856628,91.7945034 C4.50856628,91.3096062 4.89121692,90.9140635 5.37107117,90.8935333 L5.41018554,90.8926961 L46.1676247,90.8884475 Z" id="Path-3" fill="#40A7DB"></path>
                    <path d="M284.400267,90.1670769 C284.898269,90.167025 285.302074,90.5706937 285.302074,91.0686962 C285.302074,91.5535933 284.919423,91.9491361 284.439569,91.9696663 L284.400455,91.9705034 L243.643016,91.974752 C243.145013,91.9748039 242.741208,91.5711352 242.741208,91.0731328 C242.741208,90.5882356 243.123859,90.1926929 243.603713,90.1721627 L243.642828,90.1713255 L284.400267,90.1670769 Z" id="Path-3" fill="#40A7DB"></path>
                </g>
            </g>
        </g>
    </g>
</svg>