<svg id="Layer_1" data-name="Layer 1" xmlns="http://www.w3.org/2000/svg" viewBox="0 0 2000 725.98"><defs><style>.cls-1{fill:#d3ae43;}.cls-2{fill:#8e8e8e;}.cls-3{fill:#0b665e;}</style></defs><title>fiverr1c</title><polygon class="cls-1" points="1876.92 472.99 1876.92 485.99 232.99 485.99 103.01 154.66 116.97 154.66 241.85 472.99 1876.92 472.99"/><path class="cls-1" d="M316.33,599.81c0,28-15.22,49.48-41.52,49.48-13.49,0-23.7-5.88-30.45-15.4v12.8H232.94V522.13h12.63v42.21c6.75-8.65,16.78-13.67,29.76-13.67C301.1,550.68,316.33,572,316.33,599.81Zm-13.49,0c0-21.11-9.34-37.37-29.58-37.37-19.38,0-28.89,15.57-28.89,37.37s9.34,37.71,29.24,37.71C293.15,637.53,302.83,621.09,302.83,599.81Z"/><path class="cls-1" d="M404,588.74v58H392.62V631.3c-7.27,11.76-19.72,18-35.47,18-21.28,0-32-12.8-32-27.68,0-15.22,9.86-23.53,23.7-27.16,12.63-3.11,30.1-5,42.56-6.57-.17-17.13-6.92-25.26-24.91-25.26-12.8,0-22,5.71-25.43,18L328.61,577c4.33-16.61,17.47-26.3,38.23-26.3,17,0,29.41,6.57,34.43,18.68C403.52,574.73,404,581.65,404,588.74Zm-14,24.91a72.79,72.79,0,0,0,1.38-14.71c-12.28,1.38-27,2.94-37.37,5.71-8,2.25-16.09,6.92-16.09,17,0,8.13,5.54,16.61,20.59,16.61C376.36,638.22,387.78,627.84,390,613.65Z"/><path class="cls-1" d="M495.21,588.74v58H483.79V631.3c-7.27,11.76-19.72,18-35.47,18-21.28,0-32-12.8-32-27.68,0-15.22,9.86-23.53,23.7-27.16,12.63-3.11,30.1-5,42.56-6.57-.17-17.13-6.92-25.26-24.91-25.26-12.8,0-22,5.71-25.43,18L419.78,577c4.33-16.61,17.47-26.3,38.23-26.3,17,0,29.41,6.57,34.43,18.68C494.69,574.73,495.21,581.65,495.21,588.74Zm-14,24.91a72.79,72.79,0,0,0,1.38-14.71c-12.28,1.38-27,2.94-37.37,5.71-8,2.25-16.09,6.92-16.09,17,0,8.13,5.54,16.61,20.59,16.61C467.53,638.22,478.95,627.84,481.2,613.65Z"/><path class="cls-1" d="M593,595.32V646.7h-12.8V598.95c0-20.59-7.44-35.81-27.16-35.81-17.82,0-27.51,12.63-27.51,33.74V646.7h-12.8V553.28H524.1v13c6.92-10,18-15.22,31.49-15.22C583.44,551,593,574.21,593,595.32Z"/><path class="cls-2" d="M693.81,599.81c0,28-15.22,49.48-41.52,49.48-13.49,0-23.7-5.88-30.45-15.4v12.8H610.43V522.13h12.63v42.21c6.75-8.65,16.78-13.67,29.76-13.67C678.59,550.68,693.81,572,693.81,599.81Zm-13.49,0c0-21.11-9.34-37.37-29.58-37.37-19.38,0-28.89,15.57-28.89,37.37s9.34,37.71,29.24,37.71C670.63,637.53,680.32,621.09,680.32,599.81Z"/><path class="cls-2" d="M753.84,553.28v11.94c-6.92-1.73-15.57-1.21-22.49,4.15-9.34,7.44-10.73,19.55-10.73,30.79V646.7h-12.8V553.28h11.42V568a29.77,29.77,0,0,1,7.27-8.65C733.77,553.1,745.54,551.2,753.84,553.28Z"/><path class="cls-2" d="M802.63,637.18c13.32,0,23.53-6.4,29.24-18l11.94,4.5c-7.44,16.26-22.66,25.6-40.83,25.6-27.16,0-44.64-19.2-44.64-49,0-30.62,17.3-49.65,44.29-49.65,27.68,0,43.77,19.9,42.91,52.94H772C773,624.9,783.94,637.18,802.63,637.18Zm-30.45-44.29h60c-2.08-20.07-11.94-30.62-29.24-30.62C784.81,562.27,774.26,573.34,772.18,592.89Z"/><path class="cls-2" d="M859.72,522.13h12.8v76.12l41.69-45h17L887.4,600l49.48,46.71H918.36l-45.85-45v45h-12.8Z"/><path class="cls-2" d="M977.87,637.18c13.32,0,23.53-6.4,29.24-18l11.94,4.5c-7.44,16.26-22.66,25.6-40.83,25.6-27.16,0-44.64-19.2-44.64-49,0-30.62,17.3-49.65,44.29-49.65,27.68,0,43.77,19.9,42.91,52.94H947.25C948.29,624.9,959.19,637.18,977.87,637.18Zm-30.45-44.29h60c-2.08-20.07-11.94-30.62-29.24-30.62C960.05,562.27,949.5,573.34,947.43,592.89Z"/><path class="cls-2" d="M1112.64,595.32V646.7h-12.8V598.95c0-20.59-7.44-35.81-27.16-35.81-17.82,0-27.51,12.63-27.51,33.74V646.7h-12.8V553.28h11.42v13c6.92-10,18-15.22,31.49-15.22C1103.13,551,1112.64,574.21,1112.64,595.32Z"/><path class="cls-2" d="M1207.79,522.13V646.7h-11.42v-12.8c-6.75,9.52-17,15.4-30.45,15.4-26.3,0-41.52-21.45-41.52-49.48,0-27.85,15.22-49.13,41-49.13,13,0,23,5,29.76,13.67V522.13Zm-11.42,77.68c0-21.8-9.51-37.37-28.89-37.37-20.24,0-29.58,16.26-29.58,37.37,0,21.28,9.69,37.71,29.24,37.71C1187,637.53,1196.37,621.61,1196.37,599.81Z"/><path class="cls-2" d="M1340,599.81c0,28-15.22,49.48-41.52,49.48-12.63,0-22.49-5.19-29.24-13.84v52.77h-12.63V553.28H1268V565.9c6.75-9.52,17.13-15.22,31-15.22C1324.74,550.68,1340,572,1340,599.81Zm-13.49,0c0-21.11-9.34-37.37-29.58-37.37-19.38,0-28.89,15.57-28.89,37.37s9.34,37.71,29.24,37.71C1316.78,637.53,1326.47,621.09,1326.47,599.81Z"/><path class="cls-2" d="M1355.7,519.54h12.63V646.7H1355.7Z"/><path class="cls-2" d="M1463,588.74v58h-11.42V631.3c-7.27,11.76-19.72,18-35.47,18-21.28,0-32-12.8-32-27.68,0-15.22,9.86-23.53,23.7-27.16,12.63-3.11,30.1-5,42.56-6.57-.17-17.13-6.92-25.26-24.91-25.26-12.8,0-22,5.71-25.43,18L1387.53,577c4.33-16.61,17.47-26.3,38.23-26.3,17,0,29.41,6.57,34.43,18.68C1462.44,574.73,1463,581.65,1463,588.74Zm-14,24.91a72.79,72.79,0,0,0,1.38-14.71c-12.28,1.38-27,2.94-37.37,5.71-8,2.25-16.09,6.92-16.09,17,0,8.13,5.54,16.61,20.59,16.61C1435.28,638.22,1446.7,627.84,1448.95,613.65Z"/><path class="cls-2" d="M1502.75,612.44c0,7.79-.35,12.63,1.9,16.78,4.15,7.61,13.32,8.48,26.64,6.4V646.7c-15.74,3.29-32.18,1.21-38.23-11.07-3.46-6.92-3.11-13.67-3.11-22.84V564.17h-19.9v-10.9h19.9v-26h12.8v26h28.55v10.9h-28.55Z"/><path class="cls-2" d="M1566.76,545v8.3h25.6v10.9h-25.6V646.7h-12.63V564.17h-16.26v-10.9h16.26v-6.92c0-7.27.52-14.36,5.71-20.07,5.71-6.05,13.32-6.75,20.59-6.75h11.94v10.73h-11.07C1571.43,530.27,1566.76,534.76,1566.76,545Z"/><path class="cls-2" d="M1592.54,599.81c0-29.24,17-49.13,44.29-49.13,27.85,0,44.29,20.24,44.29,49.13,0,29.41-16.61,49.48-44.29,49.48C1609,649.29,1592.54,628.88,1592.54,599.81Zm75.08,0c0-22.49-10.38-37-30.79-37-20.93,0-30.79,15.22-30.79,37,0,22.66,10.55,37.37,30.79,37.37C1657.41,637.18,1667.62,622,1667.62,599.81Z"/><path class="cls-2" d="M1741.14,553.28v11.94c-6.92-1.73-15.57-1.21-22.49,4.15-9.34,7.44-10.73,19.55-10.73,30.79V646.7h-12.8V553.28h11.42V568a29.77,29.77,0,0,1,7.27-8.65C1721.07,553.1,1732.84,551.2,1741.14,553.28Z"/><path class="cls-2" d="M1876.78,583l-.17,63.67H1864l.17-61.24c0-14.53-9-23.36-21.28-23.36-10.73,0-21.8,6.92-21.8,24.39l-.17,60.21h-12.63l.17-60.55c0-14.71-8.65-24-21.45-24-13,0-21.8,9.69-21.8,24.39V646.7h-12.63V553.28H1764v9.86c5.71-7.61,15.05-12.28,26.3-12.28,12.28,0,22.14,5.54,27.16,15.74,5.54-9.86,15.74-15.74,28.2-15.74C1864.49,550.85,1876.78,563.31,1876.78,583Z"/><path class="cls-3" d="M175.83,154.48h39.22l83.16,232.21,83.16-232.21h39.22L318.09,436.9H278.34Z"/><path class="cls-3" d="M673.2,261.7V436.9H638.68V390.36c-22,35.56-59.62,54.39-107.21,54.39-64.33,0-96.75-38.7-96.75-83.68,0-46,29.81-71.13,71.65-82.11,38.18-9.41,91-15.17,128.66-19.87-.52-51.78-20.92-76.36-75.31-76.36-38.7,0-66.42,17.26-76.88,54.39l-37.66-11c13.07-50.21,52.82-79.5,115.58-79.5,51.25,0,88.91,19.87,104.08,56.48C671.63,219.34,673.2,240.26,673.2,261.7ZM630.84,337c3.14-13.6,4.18-31.9,4.18-44.45-37.13,4.18-81.59,8.89-113,17.26-24.06,6.8-48.64,20.92-48.64,51.25,0,24.58,16.74,50.21,62.24,50.21C589.52,411.28,624,379.9,630.84,337Z"/><path class="cls-3" d="M723.93,295.69c1-88.91,48.64-149.05,133.36-149.05,57,0,102,29.81,117.67,77.93l-37.66,12.55c-13.07-34-43.41-53.87-80.54-53.87-62.24,0-91.52,46.55-92,112.44.52,67.47,31.38,112.44,92,112.44,38.18,0,65.37-18.3,80-51.78l38.18,11c-20.92,50.73-62.24,77.4-118.2,77.4C771.53,444.75,725,383,723.93,295.69Z"/><path class="cls-3" d="M1095.26,333.35c0,23.53-1,38.18,5.75,50.73,12.55,23,40.27,25.63,80.54,19.35V436.9c-47.59,9.94-97.28,3.66-115.58-33.47-10.46-20.92-9.41-41.32-9.41-69v-147H996.41V154.48h60.15V76h38.7v78.45h86.29v32.95h-86.29Z"/><path class="cls-3" d="M1241.17,154.48h38.18V436.9h-38.18Z"/><path class="cls-3" d="M1340.53,363.16l39.22-6.28c8.37,32.43,40.27,52.3,84.2,52.3,42.36,0,69-18.83,69-50.21,0-26.15-12-34-83.68-53.35-76.88-20.4-99.89-38.7-99.89-78.45,0-48.12,42.89-80.54,107.21-80.54,63.28,0,110.35,32.95,115.58,82.11L1533,236.07c-5.23-32.95-34.52-53.87-76.88-54.39-40.27-1-68,16.74-68,43.41,0,23,16.21,32.95,82.63,49.68,77.93,19.87,102,40.27,102,83.68,0,53.87-41.84,85.77-110.87,85.77C1395.44,444.22,1350.47,414.41,1340.53,363.16Z"/><path class="cls-3" d="M1747.42,408.14c40.27,0,71.13-19.35,88.39-54.39l36.09,13.6c-22.49,49.16-68.51,77.4-123.43,77.4-82.11,0-134.93-58.05-134.93-148,0-92.57,52.3-150.1,133.89-150.1,83.68,0,132.32,60.14,129.7,160H1654.85C1658,371,1690.94,408.14,1747.42,408.14Zm-92-133.89h181.48c-6.28-60.67-36.09-92.57-88.39-92.57C1693.55,181.68,1661.65,215.15,1655.37,274.25Z"/><circle class="cls-1" cx="1261.92" cy="74.99" r="31"/></svg>